<svg xmlns="http://www.w3.org/2000/svg" version="1.1" viewBox="-5.0 -10.0 110.0 135.0">
 <path d="m73.352 35.941c0.12891 0.066406 3.1758 1.6016 6.5977 0.007813l0.28906-0.13281v-3.082c4.0156 4.6914 10.188 7.0195 10.621 7.1719 0.23438 0.046875 0.91016 0.16406 1.6562 0.16406 0.86719 0 1.832-0.16016 2.3047-0.78516 0.39453-0.52344 0.375-1.2227-0.0625-2.0781-1.4766-2.8828-13.164-12.391-14.574-13.535 0.0625-0.085937 0.13672-0.15625 0.1875-0.25 0.62891-1.2148-0.11328-2.8555-1.6484-3.6523-0.55078-0.28516-1.1484-0.4375-1.7266-0.4375-0.71484 0-1.3359 0.23828-1.7773 0.64453-2.2734-1.4375-9.2734-5.793-14.098-8.0547l-0.21094-0.046875c-0.089844 0-2.1953 0.015625-3.0859 1.2422-0.42969 0.59375-0.5 1.332-0.21875 2.1953l0.042969 0.12891 8.9453 7.9336 0.13672 0.023438c0.39062 0.074218 2.7422 0.5 4.9297 0.5 0.41797 0 0.82422-0.023438 1.2148-0.0625l-0.92969 0.62891v4.6016l-14.156 4.2422-0.125-5.0234-4.2695-3.8281h-6.6758l-4.2695 3.8281-0.12891 5.0547-14.266-4.2773 0.015624-4.5977-0.92969-0.62891c0.39062 0.039062 0.79688 0.0625 1.2188 0.0625 2.1875 0 4.5391-0.42578 4.9297-0.5l0.13672-0.023438 8.9453-7.9336 0.042968-0.12891c0.28125-0.86719 0.21094-1.6055-0.21875-2.1953-0.88672-1.2266-2.9922-1.2422-3.0859-1.2422l-0.21094 0.046875c-4.8281 2.2617-11.824 6.6172-14.098 8.0547-0.44141-0.40625-1.0625-0.64453-1.7773-0.64453-0.57813 0-1.1758 0.14844-1.7266 0.4375-1.5391 0.79688-2.2812 2.4375-1.6484 3.6523 0.046874 0.09375 0.125 0.16797 0.18359 0.25-1.418 1.1406-13.113 10.656-14.586 13.539-0.4375 0.85547-0.46094 1.5547-0.0625 2.0781 0.46875 0.61719 1.4141 0.78125 2.2891 0.78125 0.76562 0 1.4727-0.125 1.7461-0.18359 0.38281-0.14062 6.5352-2.4648 10.547-7.1484v3.0781l0.28906 0.13281c3.4219 1.5898 6.4688 0.058593 6.5977-0.007813l0.26953-0.14062v-0.125l15.117 8.6641-0.007812 0.27344-2.4688 5.2812 0.082031 2.7695-15.371 13.902c-0.50781-0.32812-1.1719-0.53125-1.9141-0.53125-0.23047 0-0.45312 0.023438-0.66406 0.058594l-1.9766-3.9141c-0.027344-0.054688-0.0625-0.10156-0.10938-0.14453l-9.8164-8.9609c-0.078125-0.074219-0.17969-0.11719-0.28906-0.12891-1.1641-0.10156-3.4414 0.30078-3.8242 2.6406-0.019532 0.11719 0.003906 0.23828 0.066406 0.33984l6.1562 10.203c0.0625 0.10547 0.16406 0.18359 0.28125 0.21875l6.6797 2.0391v0.625l-0.84766 0.22656c-0.21875 0.058594-0.37109 0.25781-0.37109 0.48438v5.9531c0 0.042969 0.003907 0.085938 0.015625 0.125 0.011719 0.046875 1.082 3.9961 5.7227 3.9961 0.53125 0 1.1211-0.0625 1.75-0.17969l8.2539 8.3516c0.085937 0.085938 0.20312 0.14062 0.32812 0.14844 0.12109 0.007812 0.23828 0.011718 0.35156 0.011718 3.0859 0 3.3516-2.4883 3.3555-2.5156 0.007813-0.10547-0.015625-0.21484-0.070313-0.30469-0.23047-0.37891-5.6797-9.3203-7.2891-11.34-0.39062-0.48828-0.90625-1.0234-1.4727-1.5547l11.449-6.1797 0.015626 0.47656 3.5352 1.2773 12.844 0.03125 3.6172-1.3086 0.011719-0.42578 11.352 6.1289c-0.5625 0.53125-1.082 1.0664-1.4727 1.5547-1.6094 2.0195-7.0547 10.961-7.2852 11.34-0.054688 0.09375-0.082031 0.19922-0.070312 0.30469 0.003906 0.027344 0.26953 2.5156 3.3555 2.5156 0.11328 0 0.23047-0.003906 0.35156-0.011718 0.125-0.007813 0.24219-0.058594 0.32812-0.14844l8.2422-8.3516c0.63281 0.11719 1.2266 0.17969 1.7578 0.17969 4.6406 0 5.7109-3.9492 5.7227-3.9961 0.011719-0.039062 0.015625-0.082031 0.015625-0.125v-5.9531c0-0.22656-0.15234-0.42578-0.37109-0.48438l-0.84766-0.22656v-0.625l6.6797-2.0391c0.11719-0.035156 0.21875-0.11328 0.28125-0.21875l6.1562-10.203c0.0625-0.10156 0.085938-0.22266 0.066407-0.33984-0.38281-2.3398-2.668-2.7422-3.8242-2.6406-0.10938 0.011719-0.21094 0.054688-0.28906 0.12891l-9.8164 8.9609c-0.046875 0.039063-0.082031 0.089844-0.10938 0.14453l-1.9766 3.9141c-0.21484-0.035156-0.43359-0.058594-0.66406-0.058594-0.74219 0-1.4023 0.20312-1.9141 0.53125l-15.273-13.816 0.078125-2.7344 0.003906-0.11719-2.4688-5.2812-0.007812-0.32813 15.02-8.6094v0.125z" fill="white"/></svg>